<?xml version="1.0" encoding="UTF-8" standalone="no"?>
<svg
   width="678"
   height="678"
   viewBox="0 0 678 678"
   fill="none"
   version="1.1"
   id="svg2"
   sodipodi:docname="Pattern.svg"
   inkscape:version="1.3.2 (091e20e, 2023-11-25, custom)"
   xmlns:inkscape="http://www.inkscape.org/namespaces/inkscape"
   xmlns:sodipodi="http://sodipodi.sourceforge.net/DTD/sodipodi-0.dtd"
   xmlns="http://www.w3.org/2000/svg"
   xmlns:svg="http://www.w3.org/2000/svg">
  <sodipodi:namedview
     id="namedview2"
     pagecolor="#ffffff"
     bordercolor="#000000"
     borderopacity="0.25"
     inkscape:showpageshadow="2"
     inkscape:pageopacity="0.0"
     inkscape:pagecheckerboard="0"
     inkscape:deskcolor="#d1d1d1"
     inkscape:zoom="1.1460177"
     inkscape:cx="339"
     inkscape:cy="339"
     inkscape:window-width="1920"
     inkscape:window-height="991"
     inkscape:window-x="-9"
     inkscape:window-y="-9"
     inkscape:window-maximized="1"
     inkscape:current-layer="svg2" />
  <path
     d="M677.9 339.372L639.077 236.857H584.395L623.585 197.669L579.824 99.0087L481.162 55.2496L441.899 94.5117V39.721L339.363 0.899414L236.846 39.721V94.4199L197.619 55.1945L98.9565 98.9536L55.1962 197.614L94.4226 236.839H39.7223L0.899658 339.372L39.7223 441.886H94.441L55.1962 481.13L98.9565 579.79L197.619 623.549L236.901 584.269V639.06L339.418 677.881L441.935 639.06V584.379L481.143 623.586L579.806 579.827L623.566 481.167L584.285 441.886H639.04L677.863 339.372H677.9ZM273.521 131.112V64.9963L339.345 40.1615L405.169 64.9963V131.204L339.345 195.76L273.557 131.204L273.502 131.149V131.094L273.521 131.112ZM365.006 221.567L365.318 221.879V221.916L365.41 222.026L405.169 182.617V236.821H380.223L365.41 222.008L364.033 223.366L365.281 221.898L364.988 221.549L365.006 221.567ZM339.748 196.31L339.363 195.98L339.198 196.108L339.363 195.943L339.748 196.329V196.31ZM314.619 223.329L313.298 222.008L298.521 236.784H273.576V182.617L313.298 222.008L313.573 221.733L313.426 221.898L314.638 223.311L314.619 223.329ZM126.692 126.707L189.524 99.0087L236.992 146.476L236.754 236.747L146.48 236.986L99.0116 189.519L126.711 126.689L126.692 126.707ZM222.987 314.262L221.886 313.417L222.014 313.289L182.659 273.586H236.772V298.531L222.014 313.307L222.987 314.28V314.262ZM195.949 339.354L196.114 339.188L195.967 339.354L196.591 340.033L195.93 339.372H195.949V339.335V339.354ZM222.014 365.418L221.886 365.29H221.867L221.151 364.61L221.886 365.29L223.299 364.115L222.014 365.418L236.809 380.213V405.157H182.622L222.014 365.418ZM64.9799 405.176L40.1444 339.354L64.9799 273.531H131.189L131.244 273.586L195.765 339.372L131.189 405.176H131.171L131.153 405.194H64.9982L64.9799 405.176ZM189.524 579.717L126.692 552.019L98.9932 489.188L146.461 441.721L236.735 441.96L236.974 532.231L189.506 579.698L189.524 579.717ZM313.628 457.011L313.426 456.864H313.445L313.334 456.736L273.557 496.145V441.923H298.503L313.334 456.736L313.903 456.185L313.445 456.846L313.61 457.011H313.628ZM405.242 547.65V613.766L339.418 638.601L273.594 613.766V547.558L339.418 482.984L405.187 547.521L405.242 547.577V547.632V547.65ZM339.216 482.617L339.381 482.782L339.455 482.709L339.363 482.819L339.216 482.617ZM364.492 456.002L365.447 456.736L380.223 441.96H405.169V496.126L365.447 456.736L365.318 456.846L364.492 456.02V456.002ZM430.903 339.409L405.26 365.051L405.132 405.139L365.043 405.268L339.4 430.91L337.362 432.929L339.4 430.892L313.72 405.213L273.631 405.084L273.502 364.996L247.859 339.354L247.712 339.5L247.859 339.335L247.767 339.225L247.859 339.317L273.484 313.693L273.612 273.605L313.701 273.476L339.345 247.834L365.024 273.513L405.114 273.641L405.242 313.729L430.903 339.39L430.94 339.354L430.903 339.317L431.197 339.097L430.94 339.354L437.677 346.145L430.903 339.372V339.409ZM489.202 99.0271L552.034 126.725L579.733 189.556L532.264 237.023L441.99 236.784L441.752 146.512L489.22 99.0454L489.202 99.0271ZM456.363 364.867L456.84 365.345L456.749 365.418L496.14 405.176H441.954V380.231L456.749 365.418L456.345 364.849L456.363 364.867ZM482.795 339.409L482.722 339.464L482.777 339.409L482.612 339.243L482.795 339.372V339.409ZM456.693 313.307L456.84 313.454H456.859L457.024 313.638L456.84 313.454L455.666 314.629L456.693 313.307L441.917 298.531V273.586H496.067L456.693 313.307ZM552.034 552.055L489.202 579.753L441.733 532.287L441.972 442.015L532.246 441.776L579.714 489.243L552.015 552.074L552.034 552.055ZM613.764 405.176H547.555L482.979 339.354L547.5 273.605L547.592 273.513H613.764L638.6 339.335L613.764 405.157V405.176Z"
     fill="url(#paint0_linear_650_862)"
     id="path1" />
  <defs
     id="defs2">
    <linearGradient
       id="paint0_linear_650_862"
       x1="522.821"
       y1="604.103"
       x2="72.5568"
       y2="70.4176"
       gradientUnits="userSpaceOnUse">
      <stop
         stop-color="#9C8162"
         id="stop1"
         offset="0"
         style="stop-color:#edd5d5;stop-opacity:0.57396448;" />
      <stop
         offset="1"
         stop-color="#9C8162"
         stop-opacity="0"
         id="stop2" />
    </linearGradient>
  </defs>
</svg>
